<svg xmlns="http://www.w3.org/2000/svg" width="350" height="72" viewBox="0 0 350 72" fill="none"><g clip-path="url(#clip0_4250_386)"><path d="M122.105 20.4062V56.0354H114.922L98.2859 32.6177V56.0354H91.0928V20.4062H98.4167L114.917 43.6398L114.897 20.4062H122.11H122.105Z" fill="#020204"></path><path d="M161.613 38.2017C161.613 40.8789 161.175 43.3371 160.304 45.5615C159.433 47.7908 158.21 49.7116 156.63 51.3238C155.049 52.9311 153.217 54.1801 151.133 55.0709C149.049 55.9616 146.809 56.4045 144.408 56.4045C142.007 56.4045 139.767 55.9616 137.683 55.0709C135.599 54.1801 133.767 52.9311 132.191 51.3238C130.616 49.7116 129.393 47.8007 128.517 45.5814C127.646 43.367 127.208 40.9088 127.208 38.2017C127.208 35.4947 127.641 33.0763 128.517 30.857C129.393 28.6426 130.616 26.7317 132.191 25.1195C133.767 23.5122 135.599 22.2532 137.683 21.3525C139.767 20.4519 142.007 19.999 144.408 19.999C146.809 19.999 149.049 20.4519 151.133 21.3525C153.217 22.2532 155.049 23.5122 156.63 25.1195C158.205 26.7317 159.428 28.6426 160.304 30.857C161.175 33.0763 161.613 35.5246 161.613 38.2017ZM154.425 38.2017C154.425 36.5049 154.143 34.9573 153.584 33.564C153.026 32.1707 152.291 30.9615 151.375 29.9314C150.463 28.9013 149.396 28.1052 148.173 27.5528C146.95 27.0005 145.697 26.7218 144.418 26.7218C143.14 26.7218 141.891 27.0005 140.668 27.5528C139.445 28.1052 138.373 28.8964 137.462 29.9314C136.55 30.9615 135.816 32.1756 135.257 33.5839C134.693 34.9872 134.416 36.5248 134.416 38.2017C134.416 39.8787 134.693 41.4512 135.257 42.8395C135.816 44.2328 136.55 45.442 137.462 46.4721C138.373 47.5021 139.445 48.2983 140.668 48.8507C141.891 49.403 143.145 49.6817 144.418 49.6817C145.692 49.6817 146.95 49.403 148.173 48.8507C149.396 48.2983 150.463 47.5071 151.375 46.4721C152.291 45.442 153.026 44.2328 153.584 42.8395C154.143 41.4462 154.425 39.8986 154.425 38.2017Z" fill="#020204"></path><path d="M197.201 20.3867L182.775 56.0159H176.362L161.936 20.3867H169.556L179.563 46.1233L189.57 20.3867H197.191H197.201Z" fill="#020204"></path><path d="M201.684 20.3916V56.0158H208.877V20.3916H201.684Z" fill="#020204"></path><path d="M208.893 12.3701C208.893 13.3603 208.541 14.2063 207.841 14.8979C207.142 15.5946 206.286 15.9429 205.284 15.9429C204.282 15.9429 203.432 15.5996 202.727 14.9178C202.022 14.2311 201.67 13.3852 201.67 12.3701C201.67 11.3549 202.022 10.5438 202.727 9.85712C203.432 9.17538 204.282 8.83203 205.284 8.83203C206.286 8.83203 207.142 9.17538 207.841 9.85712C208.541 10.5388 208.893 11.3798 208.893 12.3701Z" fill="#020204"></path><path d="M305.643 20.3916V56.0158H312.836V20.3916H305.643Z" fill="#020204"></path><path d="M350.006 20.3867V27.4976H337.78V56.0109H330.586V27.4976H318.35V20.3867H350.006Z" fill="#020204"></path><path d="M289.045 38.2017C289.045 40.8789 288.607 43.3371 287.736 45.5615C286.865 47.7908 285.642 49.7116 284.061 51.3238C282.481 52.9311 280.649 54.1801 278.565 55.0709C276.481 55.9616 274.241 56.4045 271.84 56.4045C269.439 56.4045 267.199 55.9616 265.115 55.0709C263.031 54.1801 261.199 52.9311 259.623 51.3238C258.047 49.7116 256.824 47.8007 255.948 45.5814C255.078 43.367 254.64 40.9088 254.64 38.2017C254.64 35.4947 255.073 33.0763 255.948 30.857C256.824 28.6426 258.047 26.7317 259.623 25.1195C261.199 23.5122 263.031 22.2532 265.115 21.3525C267.199 20.4519 269.439 19.999 271.84 19.999C274.241 19.999 276.481 20.4519 278.565 21.3525C280.649 22.2532 282.481 23.5122 284.061 25.1195C285.637 26.7317 286.86 28.6426 287.736 30.857C288.607 33.0763 289.045 35.5246 289.045 38.2017ZM281.852 38.2017C281.852 36.5049 281.57 34.9573 281.011 33.564C280.452 32.1707 279.717 30.9615 278.801 29.9314C277.89 28.9013 276.823 28.1052 275.6 27.5528C274.377 27.0005 273.123 26.7218 271.845 26.7218C270.566 26.7218 269.318 27.0005 268.095 27.5528C266.871 28.1052 265.799 28.8964 264.888 29.9314C263.977 30.9615 263.242 32.1756 262.683 33.5839C262.12 34.9872 261.843 36.5248 261.843 38.2017C261.843 39.8787 262.12 41.4512 262.683 42.8395C263.242 44.2328 263.977 45.442 264.888 46.4721C265.799 47.5021 266.871 48.2983 268.095 48.8507C269.318 49.403 270.571 49.6817 271.845 49.6817C273.118 49.6817 274.377 49.403 275.6 48.8507C276.823 48.2983 277.89 47.5071 278.801 46.4721C279.717 45.442 280.452 44.2328 281.011 42.8395C281.57 41.4462 281.852 39.8986 281.852 38.2017Z" fill="#020204"></path><path d="M248.267 20.3307H243.063L241.462 23.9334C240.782 23.182 239.942 22.5053 238.98 21.9131C238.14 21.4354 237.057 21.0025 235.774 20.5646C234.45 20.1665 232.89 19.9326 231.088 19.9326C228.883 19.9326 226.804 20.4053 224.76 21.2762C222.757 22.1868 221.035 23.4159 219.515 24.9983C218.035 26.5409 216.832 28.3622 215.951 30.5019C215.111 32.6019 214.708 36.4783 214.708 38.9763C214.708 41.4743 215.151 43.7285 216.032 45.8633C216.913 47.9632 218.076 49.7845 219.596 51.3669C221.076 52.9095 222.842 54.1386 224.841 55.0094C226.844 55.9201 228.968 56.358 231.128 56.358C232.849 56.358 234.294 56.1589 235.532 55.7658C236.735 55.3677 237.777 54.895 238.658 54.3824C239.62 53.8301 240.46 53.1533 241.14 52.4019V55.9649C241.14 58.5375 240.299 60.6374 238.658 62.2597C237.017 63.8819 234.772 64.6731 231.928 64.6731C229.527 64.6731 227.685 64.1606 226.361 63.2101C225.077 62.2199 224.116 61.1102 223.517 59.9259H216.309C216.711 61.4286 217.31 62.817 218.151 64.1606C219.032 65.5091 220.114 66.6934 221.393 67.6837C222.717 68.6739 224.237 69.5049 225.999 70.0971C227.76 70.6892 229.723 71.0077 231.928 71.0077C234.41 71.0077 236.695 70.6494 238.739 69.898C240.742 69.1865 242.464 68.1166 243.903 66.768C245.303 65.4195 246.385 63.8371 247.15 61.976C247.95 60.115 248.353 58.1344 248.353 55.9599L248.272 20.3257L248.267 20.3307ZM240.007 42.7532C239.443 44.1366 238.683 45.3657 237.802 46.3957C236.881 47.4258 235.799 48.217 234.596 48.7694C233.353 49.3217 232.114 49.6004 230.831 49.6004C229.547 49.6004 228.309 49.3217 227.066 48.7694C225.863 48.217 224.78 47.4208 223.859 46.3957C222.938 45.3657 222.218 44.1415 221.654 42.7532C221.096 41.3649 220.814 39.8222 220.814 38.1204C220.814 36.4186 221.096 34.9158 221.654 33.4876C222.213 32.1043 222.938 30.8751 223.859 29.8451C224.78 28.815 225.863 28.0238 227.066 27.4715C228.309 26.9191 229.547 26.6405 230.831 26.6405C232.114 26.6405 233.353 26.9191 234.596 27.4715C235.799 28.0288 236.881 28.82 237.802 29.8451C238.683 30.8751 239.443 32.1043 240.007 33.4876C240.566 34.876 240.848 36.4186 240.848 38.1204C240.848 39.8222 240.566 41.3649 240.007 42.7532Z" fill="#020204"></path><path d="M64.6043 25.3834C64.7755 25.6372 64.4986 25.9457 64.2218 25.8113C61.4684 24.408 57.9448 26.5876 58.0606 29.6728L58.0505 54.9466C58.1512 59.1564 52.891 60.7239 50.3541 57.6785C44.3187 50.4432 40.6844 46.2682 33.6071 38.0875C32.8017 37.2017 31.8101 35.7636 30.9342 34.9674C28.1758 32.4793 23.7663 34.4798 23.7562 38.0875L23.7462 63.5006C23.867 67.1332 19.1202 69.0142 16.5984 66.6605C16.4021 66.4763 16.2309 66.2673 16.0799 66.0434C13.397 62.0725 9.25932 55.9468 6.60155 52.0157C4.84984 49.4181 1.79944 44.9097 0.0527653 42.3221C-0.118379 42.0733 0.158472 41.7648 0.430289 41.8942C3.16356 43.2875 6.67202 41.1428 6.59651 38.0825V12.7639C6.49081 8.73321 11.6654 6.83232 14.2779 10.027C14.3433 10.1066 14.3987 10.1862 14.4641 10.2609C18.4709 14.9285 23.3988 20.7357 27.3905 25.3834C29.0416 27.2743 31.7648 30.5337 33.5467 32.544C33.8286 32.8625 34.1558 33.1412 34.5333 33.3502C37.1407 34.7883 40.9814 32.8973 40.9059 29.6728V4.29449C40.7599 0.338457 45.5218 -1.27381 48.1342 1.11971C48.5369 1.48795 48.8792 1.92585 49.005 2.12489C54.0236 9.6936 59.5405 17.8943 64.5993 25.3834H64.6043Z" fill="#0E33C0"></path></g><defs><clipPath id="clip0_4250_386"><rect width="350" height="71.0145" fill="white"></rect></clipPath></defs></svg>